<svg id="svg" xmlns="http://www.w3.org/2000/svg" xmlns:xlink="http://www.w3.org/1999/xlink" width="400" height="400" viewBox="0, 0, 400,400" version="1.1">
  <g id="svgg">
    <path id="path0" d="M125.200 111.573 C 120.433 112.589,117.884 115.016,116.562 119.800 C 115.746 122.755,115.762 220.466,116.581 228.400 C 117.961 241.782,122.761 253.272,130.697 262.193 C 132.070 263.737,133.195 265.117,133.197 265.260 C 133.202 265.647,141.070 271.920,143.530 273.497 C 162.047 285.372,188.542 285.845,207.014 274.630 C 208.672 273.623,210.114 272.800,210.218 272.800 C 211.533 272.800,220.921 263.668,224.405 259.000 C 234.019 246.121,238.584 227.536,235.849 212.417 C 235.509 210.538,235.159 208.460,235.071 207.800 C 233.353 194.917,222.920 178.837,211.115 170.876 C 208.087 168.834,202.979 165.993,201.400 165.473 C 200.960 165.327,199.790 164.929,198.800 164.588 C 186.734 160.423,172.073 160.673,160.600 165.238 C 153.879 167.913,145.508 173.554,141.061 178.406 C 139.558 180.046,139.043 180.396,138.767 179.961 C 138.569 179.647,138.410 166.202,138.406 149.475 L 138.400 119.550 137.375 117.384 C 135.378 113.162,129.935 110.565,125.200 111.573 M182.000 181.762 C 194.413 183.473,205.002 191.287,210.507 202.800 C 213.114 208.251,213.599 209.491,213.604 210.714 C 213.607 211.311,213.877 212.684,214.204 213.764 C 215.101 216.720,215.011 226.470,214.045 231.088 C 211.057 245.360,203.162 254.883,189.400 260.815 C 181.763 264.106,168.050 263.323,159.200 259.089 C 151.456 255.385,140.800 243.635,140.800 238.799 C 140.800 238.448,140.630 237.989,140.423 237.780 C 139.498 236.848,138.043 229.323,137.758 224.000 C 137.519 219.518,138.300 211.732,139.159 210.045 C 139.340 209.690,139.601 208.800,139.741 208.066 C 139.880 207.332,140.699 205.227,141.560 203.389 C 148.934 187.654,164.467 179.347,182.000 181.762 M272.995 255.493 C 263.280 258.979,259.016 269.274,263.863 277.544 C 271.913 291.279,292.566 285.434,291.932 269.600 C 291.537 259.744,281.658 252.385,272.995 255.493 " stroke="none" fill="#c4acfc" fill-rule="evenodd"></path>
  </g>
</svg>